<svg xmlns="http://www.w3.org/2000/svg" xmlns:xlink="http://www.w3.org/1999/xlink" width="22" height="22" viewBox="0 0 22 22">
  <defs>
    <clipPath id="clip-path">
      <rect id="Rectangle_70" data-name="Rectangle 70" width="22" height="22" transform="translate(0.25 0.25)" fill="#707070"/>
    </clipPath>
  </defs>
  <g id="Group_107" data-name="Group 107" transform="translate(-0.25 -0.25)">
    <path id="Path_65" data-name="Path 65" d="M597.527,17.052V11.025h-1.32V9.472h1.321V9.244c0-.109,0-.22,0-.332-.013-1.405-.027-2.859,1.422-3.291a7.372,7.372,0,0,1,.738-.166h2.152V7.065h-1.351c-.206,0-.658.343-.658.6V9.472h1.981l-.178,1.554h-1.8v6.026Z" transform="translate(-587.63 -0.028)" fill="#707070"/>
    <g id="Group_60" data-name="Group 60">
      <g id="Group_57" data-name="Group 57" clip-path="url(#clip-path)">
        <path id="Path_66" data-name="Path 66" d="M12.057,0a5.19,5.19,0,0,0,.749.1,11.174,11.174,0,0,1,0,22.093,5.18,5.18,0,0,0-.749.1H10.231a5.191,5.191,0,0,0-.749-.1A11.229,11.229,0,0,1,.111,12.81a5.2,5.2,0,0,0-.1-.75c.029-.6-.039-1.234,0-1.829A11.3,11.3,0,0,1,10.231,0Zm-1.7,1.058a10.115,10.115,0,1,0,9.185,15.727A10.151,10.151,0,0,0,10.353,1.058" transform="translate(0.047 0.079)" fill="#707070"/>
      </g>
    </g>
  </g>
</svg>
