<svg xmlns="http://www.w3.org/2000/svg" xmlns:xlink="http://www.w3.org/1999/xlink" width="23" height="22" viewBox="0 0 23 22">
  <defs>
    <clipPath id="clip-path">
      <rect id="Rectangle_70" data-name="Rectangle 70" width="23" height="22" transform="translate(-0.25 0.25)" fill="#707070"/>
    </clipPath>
  </defs>
  <g id="Group_108" data-name="Group 108" transform="translate(0.25 -0.25)">
    <path id="Union_2" data-name="Union 2" d="M2.213,11.549A2.5,2.5,0,0,1,0,9.374L0,2.137A2.488,2.488,0,0,1,2.1.011L9.368,0a2.509,2.509,0,0,1,2.17,2.167c-.064,1.115-.025,2.291.013,3.429a34.374,34.374,0,0,1-.01,3.735,2.5,2.5,0,0,1-2.168,2.214c-.4-.023-.829-.034-1.311-.034-.7,0-1.42.024-2.116.047s-1.411.047-2.1.047C3.232,11.605,2.7,11.587,2.213,11.549Zm3.422-.974c.624.02,1.27.041,1.9.041h0c.556,0,1.043-.016,1.489-.05a1.518,1.518,0,0,0,1.538-1.539V9c-.058-1-.024-2.068.009-3.1a32.332,32.332,0,0,0-.009-3.388A1.522,1.522,0,0,0,9.062.982C8.594.943,8.08.924,7.489.924c-.663,0-1.348.024-2.011.047s-1.338.047-1.993.047c-.386,0-.732-.008-1.057-.025H2.4A1.507,1.507,0,0,0,.982,2.478,29.633,29.633,0,0,0,.969,5.9c.036,1.034.073,2.1.01,3.1v.023a1.518,1.518,0,0,0,1.538,1.539H2.54c.367-.021.762-.032,1.207-.032C4.37,10.535,5.013,10.555,5.635,10.575ZM4.006,7.537a2.312,2.312,0,0,1-.575-2.609,2.7,2.7,0,0,1,2.4-1.679,2.4,2.4,0,0,1,1.7.76,2.312,2.312,0,0,1,.575,2.609A2.7,2.7,0,0,1,5.71,8.3,2.4,2.4,0,0,1,4.006,7.537ZM5.714,4.293a1.412,1.412,0,0,0-1.4,1.5A1.429,1.429,0,0,0,5.765,7.259h.023A1.424,1.424,0,0,0,7.221,5.766,1.418,1.418,0,0,0,5.784,4.291Zm2.88-.666a.846.846,0,0,1-.073-1.641A.819.819,0,0,1,9.566,2.8a.8.8,0,0,1-.832.835A1.235,1.235,0,0,1,8.595,3.627Z" transform="translate(5.727 5.424)" fill="#707070"/>
    <g id="Group_61" data-name="Group 61">
      <g id="Group_57" data-name="Group 57" clip-path="url(#clip-path)">
        <path id="Path_66" data-name="Path 66" d="M12.057,0a5.19,5.19,0,0,0,.749.1,11.174,11.174,0,0,1,0,22.093,5.18,5.18,0,0,0-.749.1H10.231a5.191,5.191,0,0,0-.749-.1A11.229,11.229,0,0,1,.111,12.81a5.2,5.2,0,0,0-.1-.75c.029-.6-.039-1.234,0-1.829A11.3,11.3,0,0,1,10.231,0Zm-1.7,1.058a10.115,10.115,0,1,0,9.185,15.727A10.151,10.151,0,0,0,10.353,1.058" transform="translate(0.381 0.079)" fill="#707070"/>
      </g>
    </g>
  </g>
</svg>
