<svg xmlns="http://www.w3.org/2000/svg" xmlns:xlink="http://www.w3.org/1999/xlink" width="23" height="22" viewBox="0 0 23 22">
  <defs>
    <clipPath id="clip-path">
      <rect id="Rectangle_70" data-name="Rectangle 70" width="23" height="22" transform="translate(0 0.25)" fill="#707070"/>
    </clipPath>
  </defs>
  <g id="Group_105" data-name="Group 105" transform="translate(0 -0.25)">
    <path id="Union_1" data-name="Union 1" d="M.018,10.873V3.541H2.427v7.332Zm9.161,0c-.02-.59,0-1.2.015-1.8.021-.734.043-1.493,0-2.218-.039-.6-.152-1.316-.688-1.528a1.211,1.211,0,0,0-.447-.082,1.32,1.32,0,0,0-.984.419,2.564,2.564,0,0,0-.393.842v4.365H4.209V3.541h2.47V4.993l.715-.908a2.912,2.912,0,0,1,1.739-.57,2.169,2.169,0,0,1,1.883.936A4.78,4.78,0,0,1,11.6,6.2v4.669ZM.712,2.309A1.146,1.146,0,0,1,.027,1.45,1.22,1.22,0,0,1,.339.337,1.188,1.188,0,0,1,1.19,0a1.185,1.185,0,0,1,1.1.673,1.237,1.237,0,0,1-.079,1.194,1.193,1.193,0,0,1-1,.544A1.332,1.332,0,0,1,.712,2.309Z" transform="translate(5.477 6.009)" fill="#707070"/>
    <g id="Group_58" data-name="Group 58">
      <g id="Group_57" data-name="Group 57" clip-path="url(#clip-path)">
        <path id="Path_66" data-name="Path 66" d="M12.057,0a5.19,5.19,0,0,0,.749.1,11.174,11.174,0,0,1,0,22.093,5.18,5.18,0,0,0-.749.1H10.231a5.191,5.191,0,0,0-.749-.1A11.229,11.229,0,0,1,.111,12.81a5.2,5.2,0,0,0-.1-.75c.029-.6-.039-1.234,0-1.829A11.3,11.3,0,0,1,10.231,0Zm-1.7,1.058a10.115,10.115,0,1,0,9.185,15.727A10.151,10.151,0,0,0,10.353,1.058" transform="translate(0.13 0.079)" fill="#707070"/>
      </g>
    </g>
  </g>
</svg>
