<svg id="Group_118" data-name="Group 118" xmlns="http://www.w3.org/2000/svg" width="215.45" height="34.25" viewBox="0 0 215.45 34.25">
  <path id="Path_1" data-name="Path 1" d="M2,9.459,3.119,2.09,35.6,2s5.178,1.2,5.523,7.453l-24.5.177L13.9,33.522l1.329,1.629H4.456l1.669-1.468L8.857,9.712Z" transform="translate(-2 -2)" fill="#17171b"/>
  <path id="Path_2" data-name="Path 2" d="M20.85,12.737l-.691,5.526,21.083-.141a5.923,5.923,0,0,0,2.847-5.449Z" transform="translate(-5.009 -3.837)" fill="#17171b"/>
  <path id="Path_3" data-name="Path 3" d="M40.877,20.851H19.943L18.471,33.957s-.167,3.455,4.72,4.54h12.37a7.929,7.929,0,0,0,4.415-8.24l-3.431-.08s.837,4.479-2.73,5.087l-7.006.08s-4.628.345-3.785-4.657l.558-7.846H40.659Z" transform="translate(-4.729 -5.346)" fill="#17171b"/>
  <path id="Path_4" data-name="Path 4" d="M30.726,27.3l11.339.082v2.926H30.444Z" transform="translate(-6.714 -6.342)" fill="#17171b"/>
  <path id="Path_5" data-name="Path 5" d="M64.461,9.965h8.367a5.35,5.35,0,0,1,4.1,1.454,5.845,5.845,0,0,1,1.361,4.149A6.005,6.005,0,0,1,76.8,19.892a6,6,0,0,1-4.518,1.558H69.516v6.788h-5.05Zm5.05,7.785h1.233a2.913,2.913,0,0,0,2.044-.566,1.932,1.932,0,0,0,.59-1.451,2.182,2.182,0,0,0-.51-1.462,2.48,2.48,0,0,0-1.916-.585H69.516Z" transform="translate(-12.71 -3.411)" fill="#17171b"/>
  <path id="Path_6" data-name="Path 6" d="M91.584,25.223h-5.7l-.8,3.014H79.937L86.051,9.974h5.489l6.114,18.263H92.4Zm-1.047-3.952-1.8-6.565-1.778,6.565Z" transform="translate(-15.373 -3.413)" fill="#17171b"/>
  <path id="Path_7" data-name="Path 7" d="M103.185,28.235V9.965h8.394a10.9,10.9,0,0,1,3.565.449,3.871,3.871,0,0,1,1.988,1.677,5.486,5.486,0,0,1,.755,2.958,5.581,5.581,0,0,1-.577,2.623,4.843,4.843,0,0,1-1.594,1.786,5.7,5.7,0,0,1-1.768.723,4.838,4.838,0,0,1,1.3.664,5.685,5.685,0,0,1,.8.962,7.466,7.466,0,0,1,.7,1.132l2.435,5.295h-5.667l-2.69-5.582a4.232,4.232,0,0,0-.912-1.409,1.953,1.953,0,0,0-1.231-.423h-.446v7.413Zm5.05-10.863h2.127a7.1,7.1,0,0,0,1.329-.247,1.326,1.326,0,0,0,.816-.577,1.809,1.809,0,0,0,.316-1.063,1.792,1.792,0,0,0-.494-1.353,2.774,2.774,0,0,0-1.88-.476h-2.211Z" transform="translate(-19.357 -3.411)" fill="#17171b"/>
  <path id="Path_8" data-name="Path 8" d="M134.015,25.223H128.3l-.8,3.014h-5.137l6.113-18.263h5.489l6.114,18.263h-5.252Zm-1.044-3.952-1.8-6.565-1.781,6.565Z" transform="translate(-22.653 -3.413)" fill="#17171b"/>
  <path id="Path_9" data-name="Path 9" d="M145.472,9.971h6.621l2.55,11.113L157.18,9.971h6.613V28.236H159.67V14.306l-3.176,13.93h-3.729l-3.174-13.93v13.93h-4.12Z" transform="translate(-26.62 -3.413)" fill="#17171b"/>
  <path id="Path_10" data-name="Path 10" d="M170.536,19.053a10.111,10.111,0,0,1,2.223-6.964,7.843,7.843,0,0,1,6.19-2.49,7.985,7.985,0,0,1,6.265,2.448,9.922,9.922,0,0,1,2.2,6.86,12.444,12.444,0,0,1-.962,5.249,7.352,7.352,0,0,1-2.778,3.189,8.319,8.319,0,0,1-4.518,1.14,9.451,9.451,0,0,1-4.561-.983,7.258,7.258,0,0,1-2.923-3.115,11.39,11.39,0,0,1-1.122-5.334m5.031.027a6.663,6.663,0,0,0,.919,3.974,3.211,3.211,0,0,0,5,.024q.894-1.18.891-4.253a6.152,6.152,0,0,0-.928-3.772,3.027,3.027,0,0,0-2.517-1.188,2.923,2.923,0,0,0-2.445,1.209,6.664,6.664,0,0,0-.923,3.987" transform="translate(-30.915 -3.349)" fill="#17171b"/>
  <path id="Path_11" data-name="Path 11" d="M204.606,9.965h5.021v10.9a10.1,10.1,0,0,1-.451,3.057,6.75,6.75,0,0,1-1.409,2.512,5.578,5.578,0,0,1-2.017,1.512,9.1,9.1,0,0,1-3.519.614,19.842,19.842,0,0,1-2.6-.189,6.271,6.271,0,0,1-2.344-.75,6.59,6.59,0,0,1-2.8-3.679,12.092,12.092,0,0,1-.471-3.078V9.965h5.021V21.112a3.42,3.42,0,0,0,.739,2.334,2.924,2.924,0,0,0,4.088,0,3.4,3.4,0,0,0,.742-2.344Z" transform="translate(-34.936 -3.413)" fill="#17171b"/>
  <path id="Path_12" data-name="Path 12" d="M216.765,9.971h4.7L227.6,20.077V9.971h4.744V28.236H227.6l-6.1-10.028V28.236h-4.731Z" transform="translate(-38.991 -3.413)" fill="#17171b"/>
  <path id="Path_13" data-name="Path 13" d="M238.072,9.971h15.3v4.511h-5.133V28.236H243.2V14.482h-5.132Z" transform="translate(-42.522 -3.413)" fill="#17171b"/>
  <path id="Path_14" data-name="Path 14" d="M56.881,2V34.526H76.6V32.718H58.7V3.808h167.42V32.718H210.735v1.808h17.208V2Z" transform="translate(-12.493 -2)" fill="#17171b"/>
  <path id="Path_15" data-name="Path 15" d="M82.452,41.344H83.1v-1.9h1.443v-.611H83.1V37.771h1.744v-.643H82.452Z" transform="translate(-15.771 -8.044)" fill="#17171b"/>
  <path id="Path_16" data-name="Path 16" d="M88.536,37.045a1.345,1.345,0,0,0-1.154.638,2.743,2.743,0,0,0-.42,1.565,2.777,2.777,0,0,0,.4,1.528,1.356,1.356,0,0,0,2.336-.032,2.924,2.924,0,0,0,.4-1.542,2.658,2.658,0,0,0-.417-1.528,1.329,1.329,0,0,0-1.148-.63Zm0,3.772A.717.717,0,0,1,87.9,40.4a2.256,2.256,0,0,1-.266-1.151,2.392,2.392,0,0,1,.266-1.175.715.715,0,0,1,1.286-.029,2.155,2.155,0,0,1,.266,1.154,2.482,2.482,0,0,1-.25,1.185.718.718,0,0,1-.665.417Z" transform="translate(-16.544 -8.03)" fill="#17171b"/>
  <path id="Path_17" data-name="Path 17" d="M94.206,37.045a1.329,1.329,0,0,0-1.154.638,2.735,2.735,0,0,0-.423,1.566,2.791,2.791,0,0,0,.407,1.518,1.355,1.355,0,0,0,2.336-.032,2.891,2.891,0,0,0,.4-1.542,2.631,2.631,0,0,0-.42-1.528,1.329,1.329,0,0,0-1.151-.619ZM95.1,39.2a2.469,2.469,0,0,1-.247,1.185.715.715,0,0,1-.646.431.723.723,0,0,1-.643-.415,2.286,2.286,0,0,1-.266-1.151,2.34,2.34,0,0,1,.266-1.175.71.71,0,0,1,.641-.417.718.718,0,0,1,.641.388,2.145,2.145,0,0,1,.255,1.14Z" transform="translate(-17.515 -8.03)" fill="#17171b"/>
  <path id="Path_18" data-name="Path 18" d="M99.868,37.128H98.562v4.215h1.451a1.33,1.33,0,0,0,1.127-.625,2.539,2.539,0,0,0,.43-1.491,2.445,2.445,0,0,0-.444-1.475,1.473,1.473,0,0,0-1.26-.625Zm-.654.625h.627a.867.867,0,0,1,.8.423,1.936,1.936,0,0,1,.265,1.015,1.981,1.981,0,0,1-.284,1.124.879.879,0,0,1-.8.4h-.628Z" transform="translate(-18.53 -8.044)" fill="#17171b"/>
  <path id="Path_19" data-name="Path 19" d="M109.08,38.9l-.667-.178c-.343-.09-.507-.266-.507-.5a.478.478,0,0,1,.189-.415.8.8,0,0,1,.964,0,.685.685,0,0,1,.193.2.694.694,0,0,1,.1.264l.021.112.614-.2-.029-.093a1.348,1.348,0,0,0-1.38-1.063,1.366,1.366,0,0,0-.938.324,1.124,1.124,0,0,0-.37.88,1.227,1.227,0,0,0,.135.585.976.976,0,0,0,.335.388,1.739,1.739,0,0,0,.481.2l.717.2a.753.753,0,0,1,.335.189.439.439,0,0,1,.1.156.447.447,0,0,1,.029.184.586.586,0,0,1-.039.254.6.6,0,0,1-.141.214.827.827,0,0,1-.571.175.919.919,0,0,1-.957-.747l-.029-.093-.6.149.032.1a1.543,1.543,0,0,0,1.563,1.217,1.413,1.413,0,0,0,1.042-.377,1.277,1.277,0,0,0,.377-.938A1.156,1.156,0,0,0,109.08,38.9Z" transform="translate(-19.985 -8.028)" fill="#17171b"/>
  <path id="Path_20" data-name="Path 20" d="M113.487,39.456h1.441v-.611h-1.441V37.771H115.3v-.643h-2.466v4.215h2.52V40.7h-1.869Z" transform="translate(-20.972 -8.044)" fill="#17171b"/>
  <path id="Path_21" data-name="Path 21" d="M120.544,39.012a1.389,1.389,0,0,0,.167-.664,1.329,1.329,0,0,0-.3-.829,1.122,1.122,0,0,0-.93-.391h-1.515v4.215h.619V39.6h.856l.659,1.738h.688l-.717-1.9A.97.97,0,0,0,120.544,39.012Zm-1.954-1.241h.894a.594.594,0,0,1,.415.149.539.539,0,0,1,.128.192.544.544,0,0,1,.034.228.693.693,0,0,1-.159.473.578.578,0,0,1-.473.181h-.838Z" transform="translate(-21.852 -8.044)" fill="#17171b"/>
  <path id="Path_22" data-name="Path 22" d="M124.5,40.187l-.922-3.059h-.683l1.268,4.215h.585l1.265-4.215h-.6Z" transform="translate(-22.696 -8.044)" fill="#17171b"/>
  <path id="Path_23" data-name="Path 23" d="M129.165,37.128h-.648v4.215h.648Z" transform="translate(-23.65 -8.044)" fill="#17171b"/>
  <path id="Path_24" data-name="Path 24" d="M133.047,37.659c.38,0,.633.287.774.88l.023.1.62-.138-.022-.1c-.2-.909-.672-1.369-1.392-1.369a1.368,1.368,0,0,0-1.165.6,2.607,2.607,0,0,0-.422,1.55,2.882,2.882,0,0,0,.4,1.566,1.3,1.3,0,0,0,1.15.664c.742,0,1.221-.476,1.427-1.411l.022-.1-.606-.152-.021.1c-.141.625-.4.928-.8.928a.7.7,0,0,1-.622-.4,2.185,2.185,0,0,1-.265-1.13,2.4,2.4,0,0,1,.247-1.2.716.716,0,0,1,.648-.4Z" transform="translate(-24.162 -8.027)" fill="#17171b"/>
  <path id="Path_25" data-name="Path 25" d="M137.72,39.456h1.443v-.611H137.72V37.771h1.815v-.643h-2.467v4.215h2.519V40.7H137.72Z" transform="translate(-25.12 -8.044)" fill="#17171b"/>
  <path id="Path_26" data-name="Path 26" d="M146.076,39.456h1.441v-.611h-1.441V37.771h1.815v-.643h-2.466v4.215h2.517V40.7h-1.866Z" transform="translate(-26.55 -8.044)" fill="#17171b"/>
  <path id="Path_27" data-name="Path 27" d="M153.109,40.583a2.926,2.926,0,0,0,.321-1.4A2.545,2.545,0,0,0,153,37.635a1.365,1.365,0,0,0-1.138-.606,1.345,1.345,0,0,0-1.148.635,2.76,2.76,0,0,0-.425,1.595,2.692,2.692,0,0,0,.415,1.5,1.33,1.33,0,0,0,1.064.638.953.953,0,0,0,.265.656,1.065,1.065,0,0,0,.7.218,1.189,1.189,0,0,0,.4-.069l.067-.024v-.6l-.123.027a1.754,1.754,0,0,1-.388.04c-.265,0-.372-.1-.377-.324A1.5,1.5,0,0,0,153.109,40.583Zm-1.252-2.94a.731.731,0,0,1,.643.388,2.157,2.157,0,0,1,.266,1.154,2.46,2.46,0,0,1-.253,1.185.7.7,0,0,1-1.286.016,2.256,2.256,0,0,1-.266-1.151,2.356,2.356,0,0,1,.266-1.175.715.715,0,0,1,.63-.417Z" transform="translate(-27.384 -8.027)" fill="#17171b"/>
  <path id="Path_28" data-name="Path 28" d="M158.257,39.852a1.1,1.1,0,0,1-.189.72.7.7,0,0,1-.545.207.845.845,0,0,1-.366-.082.508.508,0,0,1-.248-.237,1.509,1.509,0,0,1-.085-.611V37.128h-.651v2.724a1.82,1.82,0,0,0,.314,1.193,1.245,1.245,0,0,0,1,.391,1.332,1.332,0,0,0,.973-.375,1.636,1.636,0,0,0,.377-1.2V37.128h-.576Z" transform="translate(-28.389 -8.044)" fill="#17171b"/>
  <path id="Path_29" data-name="Path 29" d="M162.388,37.128h-.652v4.215h.652Z" transform="translate(-29.335 -8.044)" fill="#17171b"/>
  <path id="Path_30" data-name="Path 30" d="M166.326,37.128h-1.372v4.215h.652V39.716h.768a1.133,1.133,0,0,0,.879-.372,1.327,1.327,0,0,0,.335-.925,1.429,1.429,0,0,0-.3-.89,1.149,1.149,0,0,0-.959-.4Zm.607,1.292a.691.691,0,0,1-.168.494.557.557,0,0,1-.2.139.55.55,0,0,1-.239.041h-.722V37.765h.755a.481.481,0,0,1,.417.191A.782.782,0,0,1,166.932,38.419Z" transform="translate(-29.894 -8.043)" fill="#17171b"/>
  <path id="Path_31" data-name="Path 31" d="M173.388,37.106l-.008.019h-.388l-.984,2.99-1-2.99h-.84V41.34h.582V38.352l1,2.988h.449l.986-2.98v2.98h.641V37.125h-.436Z" transform="translate(-30.79 -8.041)" fill="#17171b"/>
  <path id="Path_32" data-name="Path 32" d="M177.636,39.456h1.443v-.611h-1.443V37.771h1.818v-.643h-2.469v4.215H179.5V40.7h-1.869Z" transform="translate(-31.952 -8.044)" fill="#17171b"/>
  <path id="Path_33" data-name="Path 33" d="M184.419,39.93v.146l-1.558-2.948h-.726v4.215h.566V38.178l1.674,3.166h.574V37.128h-.531Z" transform="translate(-32.836 -8.044)" fill="#17171b"/>
  <path id="Path_34" data-name="Path 34" d="M187.489,37.771h1.025v3.572h.649V37.771h1.029v-.643h-2.7Z" transform="translate(-33.751 -8.044)" fill="#17171b"/>
  <path id="Path_35" data-name="Path 35" d="M197.431,38.905l-.67-.178c-.339-.093-.507-.266-.507-.5a.464.464,0,0,1,.043-.232.48.48,0,0,1,.15-.182.8.8,0,0,1,.963,0,.708.708,0,0,1,.289.468l.022.112.611-.2-.016-.082A1.454,1.454,0,0,0,196,37.366a1.124,1.124,0,0,0-.37.88,1.238,1.238,0,0,0,.136.585.975.975,0,0,0,.335.388,1.683,1.683,0,0,0,.481.2l.717.2a.739.739,0,0,1,.335.189.439.439,0,0,1,.1.156.448.448,0,0,1,.031.184.611.611,0,0,1-.041.253.6.6,0,0,1-.14.215.832.832,0,0,1-.574.175.92.92,0,0,1-.957-.747l-.029-.093-.6.149.032.1a1.547,1.547,0,0,0,1.566,1.217,1.415,1.415,0,0,0,1.029-.393,1.277,1.277,0,0,0,.377-.938A1.158,1.158,0,0,0,197.431,38.905Z" transform="translate(-35.111 -8.03)" fill="#17171b"/>
  <path id="Path_36" data-name="Path 36" d="M202.487,37.045a1.328,1.328,0,0,0-1.15.638,2.745,2.745,0,0,0-.423,1.566,2.807,2.807,0,0,0,.4,1.531,1.361,1.361,0,0,0,2.339-.035,2.926,2.926,0,0,0,.4-1.542,2.634,2.634,0,0,0-.42-1.528,1.329,1.329,0,0,0-1.151-.63Zm.9,2.156a2.48,2.48,0,0,1-.252,1.188.7.7,0,0,1-1.028.307.7.7,0,0,1-.259-.307,2.256,2.256,0,0,1-.266-1.151,2.347,2.347,0,0,1,.266-1.175.707.707,0,0,1,.64-.417.727.727,0,0,1,.376.1.719.719,0,0,1,.267.284,2.152,2.152,0,0,1,.255,1.154Z" transform="translate(-36.051 -8.03)" fill="#17171b"/>
  <path id="Path_37" data-name="Path 37" d="M207.518,37.128h-.662v4.215h2.315V40.7h-1.654Z" transform="translate(-37.065 -8.044)" fill="#17171b"/>
  <path id="Path_38" data-name="Path 38" d="M213.549,39.852a1.11,1.11,0,0,1-.192.72.691.691,0,0,1-.254.167.7.7,0,0,1-.3.043.845.845,0,0,1-.366-.082.489.489,0,0,1-.248-.237,1.438,1.438,0,0,1-.084-.611V37.128h-.652v2.724a1.831,1.831,0,0,0,.321,1.185,1.247,1.247,0,0,0,1,.391,1.329,1.329,0,0,0,.973-.375,1.633,1.633,0,0,0,.375-1.2V37.128h-.571Z" transform="translate(-38.109 -8.044)" fill="#17171b"/>
  <path id="Path_39" data-name="Path 39" d="M216.557,37.771h1.026v3.572h.651V37.771h1.029v-.643h-2.706Z" transform="translate(-38.956 -8.044)" fill="#17171b"/>
  <path id="Path_40" data-name="Path 40" d="M222.415,37.128h-.651v4.215h.651Z" transform="translate(-39.82 -8.044)" fill="#17171b"/>
  <path id="Path_41" data-name="Path 41" d="M226.3,37.045a1.33,1.33,0,0,0-1.151.638,2.683,2.683,0,0,0-.422,1.565,2.807,2.807,0,0,0,.4,1.531,1.358,1.358,0,0,0,2.336-.035,2.9,2.9,0,0,0,.4-1.542,2.655,2.655,0,0,0-.42-1.528,1.33,1.33,0,0,0-1.148-.63Zm0,3.772a.717.717,0,0,1-.641-.415,2.256,2.256,0,0,1-.266-1.151,2.347,2.347,0,0,1,.266-1.175.715.715,0,0,1,.643-.417.728.728,0,0,1,.641.388A2.139,2.139,0,0,1,227.2,39.2a2.466,2.466,0,0,1-.265,1.188.71.71,0,0,1-.643.415Z" transform="translate(-40.31 -8.03)" fill="#17171b"/>
  <path id="Path_42" data-name="Path 42" d="M232.932,39.93v.146l-1.563-2.948h-.72v4.215h.566V38.181l1.677,3.163h.6V37.128h-.553Z" transform="translate(-41.292 -8.044)" fill="#17171b"/>
  <path id="Path_43" data-name="Path 43" d="M238,38.9l-.67-.178c-.451-.122-.5-.346-.5-.5a.477.477,0,0,1,.041-.231.484.484,0,0,1,.145-.184.8.8,0,0,1,.965,0,.68.68,0,0,1,.287.468l.023.112.609-.2-.029-.093a1.342,1.342,0,0,0-1.377-1.063,1.359,1.359,0,0,0-.936.324,1.123,1.123,0,0,0-.37.88,1.278,1.278,0,0,0,.13.585,1,1,0,0,0,.338.388,1.732,1.732,0,0,0,.484.2l.717.2a.77.77,0,0,1,.332.186.462.462,0,0,1,.1.158.469.469,0,0,1,.031.185.6.6,0,0,1-.184.468.825.825,0,0,1-.569.175.924.924,0,0,1-.959-.75l-.029-.09-.6.149.034.1a1.558,1.558,0,0,0,1.565,1.217,1.418,1.418,0,0,0,1.042-.377,1.286,1.286,0,0,0,.372-.938A1.14,1.14,0,0,0,238,38.9Z" transform="translate(-42.175 -8.028)" fill="#17171b"/>
</svg>
