<svg id="logo" xmlns="http://www.w3.org/2000/svg" width="200" height="31.794" viewBox="0 0 200 31.794">
  <path id="Path_1" data-name="Path 1" d="M2,8.924l1.039-6.84L33.19,2a7.183,7.183,0,0,1,5.127,6.919L15.57,9.083,13.046,31.261l1.234,1.512h-10l1.549-1.363L8.366,9.159Z" transform="translate(-2 -2)" fill="#b12028"/>
  <path id="Path_2" data-name="Path 2" d="M20.8,12.732l-.642,5.13,19.571-.131a5.5,5.5,0,0,0,2.642-5.058Z" transform="translate(-6.096 -4.471)" fill="#b12028"/>
  <path id="Path_3" data-name="Path 3" d="M39.27,20.851H19.838L18.471,33.018s-.155,3.208,4.382,4.214H34.336a7.36,7.36,0,0,0,4.1-7.649l-3.185-.074s.777,4.157-2.534,4.722l-6.5.074s-4.3.321-3.513-4.323l.518-7.284H39.068Z" transform="translate(-5.715 -6.458)" fill="#626568"/>
  <path id="Path_4" data-name="Path 4" d="M30.705,27.3l10.526.077V30.1H30.444Z" transform="translate(-8.416 -7.846)" fill="#626568"/>
  <path id="Path_5" data-name="Path 5" d="M64.461,9.965h7.767a4.966,4.966,0,0,1,3.8,1.35,5.426,5.426,0,0,1,1.263,3.852,5.575,5.575,0,0,1-1.377,4.014,5.565,5.565,0,0,1-4.194,1.446H69.154v6.3H64.466Zm4.688,7.227h1.145a2.7,2.7,0,0,0,1.9-.526,1.794,1.794,0,0,0,.548-1.347,2.026,2.026,0,0,0-.474-1.357,2.3,2.3,0,0,0-1.779-.543H69.154Z" transform="translate(-16.421 -3.881)" fill="#221f1f"/>
  <path id="Path_6" data-name="Path 6" d="M90.749,24.129H85.457l-.74,2.8H79.937L85.612,9.974h5.095l5.675,16.953H91.5Zm-.972-3.669-1.668-6.094-1.651,6.094Z" transform="translate(-20.003 -3.883)" fill="#221f1f"/>
  <path id="Path_7" data-name="Path 7" d="M103.185,26.925V9.965h7.792a10.117,10.117,0,0,1,3.309.417,3.593,3.593,0,0,1,1.846,1.557,5.093,5.093,0,0,1,.7,2.746,5.181,5.181,0,0,1-.536,2.435,4.5,4.5,0,0,1-1.48,1.658,5.287,5.287,0,0,1-1.641.671,4.491,4.491,0,0,1,1.211.617,5.277,5.277,0,0,1,.74.893,6.93,6.93,0,0,1,.654,1.051l2.261,4.915H112.78l-2.5-5.181a3.929,3.929,0,0,0-.846-1.308,1.813,1.813,0,0,0-1.142-.392h-.414v6.881Zm4.688-10.084h1.974a6.591,6.591,0,0,0,1.234-.229,1.231,1.231,0,0,0,.757-.535,1.679,1.679,0,0,0,.294-.987,1.664,1.664,0,0,0-.458-1.256,2.575,2.575,0,0,0-1.745-.442h-2.052Z" transform="translate(-25.368 -3.881)" fill="#221f1f"/>
  <path id="Path_8" data-name="Path 8" d="M133.179,24.129h-5.3l-.74,2.8h-4.769l5.674-16.953h5.1l5.675,16.953h-4.875Zm-.97-3.669-1.668-6.094-1.653,6.094Z" transform="translate(-29.803 -3.883)" fill="#221f1f"/>
  <path id="Path_9" data-name="Path 9" d="M145.472,9.971h6.146l2.367,10.316,2.356-10.316h6.139V26.927h-3.827V14L155.7,26.927h-3.462L149.3,14V26.927h-3.824Z" transform="translate(-35.143 -3.883)" fill="#221f1f"/>
  <path id="Path_10" data-name="Path 10" d="M170.536,18.375A9.386,9.386,0,0,1,172.6,11.91,7.28,7.28,0,0,1,178.345,9.6a7.412,7.412,0,0,1,5.815,2.272,9.21,9.21,0,0,1,2.043,6.368,11.552,11.552,0,0,1-.893,4.873,6.824,6.824,0,0,1-2.579,2.961,7.722,7.722,0,0,1-4.194,1.059,8.773,8.773,0,0,1-4.234-.913,6.737,6.737,0,0,1-2.714-2.892,10.573,10.573,0,0,1-1.042-4.952m4.671.025a6.185,6.185,0,0,0,.853,3.689,2.981,2.981,0,0,0,4.644.022,6.829,6.829,0,0,0,.827-3.948,5.71,5.71,0,0,0-.861-3.5,2.81,2.81,0,0,0-2.337-1.1,2.714,2.714,0,0,0-2.27,1.123,6.186,6.186,0,0,0-.857,3.7" transform="translate(-40.927 -3.798)" fill="#221f1f"/>
  <path id="Path_11" data-name="Path 11" d="M203.847,9.965h4.661V20.081a9.371,9.371,0,0,1-.419,2.837,6.266,6.266,0,0,1-1.308,2.332,5.178,5.178,0,0,1-1.873,1.4,8.449,8.449,0,0,1-3.267.57,18.42,18.42,0,0,1-2.413-.175,5.822,5.822,0,0,1-2.176-.7,6.117,6.117,0,0,1-2.6-3.415,11.225,11.225,0,0,1-.437-2.857V9.965h4.661V20.313a3.175,3.175,0,0,0,.686,2.166,2.714,2.714,0,0,0,3.795,0,3.156,3.156,0,0,0,.688-2.176Z" transform="translate(-46.343 -3.883)" fill="#221f1f"/>
  <path id="Path_12" data-name="Path 12" d="M216.765,9.971h4.362l5.692,9.381V9.971h4.4V26.927h-4.4l-5.662-9.309v9.309h-4.392Z" transform="translate(-51.739 -3.883)" fill="#221f1f"/>
  <path id="Path_13" data-name="Path 13" d="M238.072,9.971h14.2v4.187h-4.764V26.927h-4.673V14.158h-4.764Z" transform="translate(-56.545 -3.883)" fill="#221f1f"/>
  <path id="Path_14" data-name="Path 14" d="M56.881,2V32.194h18.3V30.515H58.571V3.679H213.986V30.515H199.7v1.679h15.974V2Z" transform="translate(-15.676 -2)" fill="#221f1f"/>
  <path id="Path_15" data-name="Path 15" d="M82.452,41.041h.6V39.28H84.4v-.568h-1.34v-.987h1.619v-.6H82.452Z" transform="translate(-20.552 -10.13)" fill="#221f1f"/>
  <path id="Path_16" data-name="Path 16" d="M88.423,37.045a1.248,1.248,0,0,0-1.071.592,2.546,2.546,0,0,0-.39,1.453,2.577,2.577,0,0,0,.373,1.419,1.258,1.258,0,0,0,2.169-.03,2.714,2.714,0,0,0,.373-1.431,2.467,2.467,0,0,0-.387-1.419,1.234,1.234,0,0,0-1.066-.585Zm0,3.5a.666.666,0,0,1-.595-.385,2.1,2.1,0,0,1-.247-1.068A2.22,2.22,0,0,1,87.828,38a.664.664,0,0,1,1.194-.027,2,2,0,0,1,.247,1.071,2.3,2.3,0,0,1-.232,1.1.666.666,0,0,1-.617.387Z" transform="translate(-21.594 -10.111)" fill="#221f1f"/>
  <path id="Path_17" data-name="Path 17" d="M94.093,37.045a1.234,1.234,0,0,0-1.071.592,2.539,2.539,0,0,0-.392,1.453,2.591,2.591,0,0,0,.377,1.409,1.258,1.258,0,0,0,2.169-.03,2.684,2.684,0,0,0,.375-1.431,2.443,2.443,0,0,0-.39-1.419,1.233,1.233,0,0,0-1.068-.575Zm.827,2a2.292,2.292,0,0,1-.229,1.1.663.663,0,0,1-.6.4.671.671,0,0,1-.6-.385,2.122,2.122,0,0,1-.247-1.068A2.172,2.172,0,0,1,93.493,38a.659.659,0,0,1,.595-.387.666.666,0,0,1,.595.36,1.991,1.991,0,0,1,.237,1.058Z" transform="translate(-22.901 -10.111)" fill="#221f1f"/>
  <path id="Path_18" data-name="Path 18" d="M99.774,37.128H98.562v3.913H99.91a1.235,1.235,0,0,0,1.046-.58,2.357,2.357,0,0,0,.4-1.384,2.27,2.27,0,0,0-.412-1.369,1.367,1.367,0,0,0-1.169-.58Zm-.607.58h.582a.805.805,0,0,1,.74.392,1.8,1.8,0,0,1,.246.942,1.838,1.838,0,0,1-.264,1.044.816.816,0,0,1-.74.373H99.15Z" transform="translate(-24.269 -10.129)" fill="#221f1f"/>
  <path id="Path_19" data-name="Path 19" d="M108.935,38.769l-.62-.165c-.318-.084-.471-.247-.471-.466a.443.443,0,0,1,.175-.385.74.74,0,0,1,.9,0,.636.636,0,0,1,.179.189.644.644,0,0,1,.088.245l.019.1.57-.185-.027-.086a1.251,1.251,0,0,0-1.281-.987,1.268,1.268,0,0,0-.87.3,1.044,1.044,0,0,0-.343.817,1.139,1.139,0,0,0,.125.543.905.905,0,0,0,.311.36,1.614,1.614,0,0,0,.447.187l.666.188a.7.7,0,0,1,.311.175.408.408,0,0,1,.094.145.415.415,0,0,1,.027.171.544.544,0,0,1-.036.235.556.556,0,0,1-.131.2.768.768,0,0,1-.531.163.853.853,0,0,1-.888-.693l-.027-.086-.558.138.029.1a1.432,1.432,0,0,0,1.451,1.13,1.311,1.311,0,0,0,.967-.35,1.186,1.186,0,0,0,.35-.871A1.073,1.073,0,0,0,108.935,38.769Z" transform="translate(-26.229 -10.108)" fill="#221f1f"/>
  <path id="Path_20" data-name="Path 20" d="M113.44,39.289h1.337v-.568H113.44v-1h1.685v-.6h-2.289v3.913h2.339v-.6H113.44Z" transform="translate(-27.559 -10.13)" fill="#221f1f"/>
  <path id="Path_21" data-name="Path 21" d="M120.36,38.877a1.29,1.29,0,0,0,.155-.617,1.233,1.233,0,0,0-.276-.77,1.041,1.041,0,0,0-.864-.363h-1.406v3.913h.575V39.427h.795l.612,1.614h.639l-.666-1.767A.9.9,0,0,0,120.36,38.877Zm-1.814-1.152h.829a.551.551,0,0,1,.385.138.5.5,0,0,1,.118.178.505.505,0,0,1,.032.212.643.643,0,0,1-.148.439.536.536,0,0,1-.439.168h-.778Z" transform="translate(-28.744 -10.129)" fill="#221f1f"/>
  <path id="Path_22" data-name="Path 22" d="M124.384,39.968l-.856-2.84h-.634l1.177,3.913h.543l1.174-3.913h-.56Z" transform="translate(-29.881 -10.13)" fill="#221f1f"/>
  <path id="Path_23" data-name="Path 23" d="M129.119,37.128h-.6v3.913h.6Z" transform="translate(-31.17 -10.13)" fill="#221f1f"/>
  <path id="Path_24" data-name="Path 24" d="M132.933,37.614c.353,0,.588.266.719.817l.022.089.575-.128-.02-.091c-.19-.844-.624-1.271-1.293-1.271a1.27,1.27,0,0,0-1.081.56,2.42,2.42,0,0,0-.392,1.439,2.675,2.675,0,0,0,.372,1.453,1.206,1.206,0,0,0,1.068.617c.688,0,1.133-.442,1.325-1.31l.02-.089-.563-.141-.019.094c-.131.58-.376.861-.74.861a.653.653,0,0,1-.578-.368A2.028,2.028,0,0,1,132.1,39.1a2.223,2.223,0,0,1,.229-1.115.665.665,0,0,1,.6-.368Z" transform="translate(-31.856 -10.107)" fill="#221f1f"/>
  <path id="Path_25" data-name="Path 25" d="M137.673,39.289h1.34v-.568h-1.34v-1h1.685v-.6h-2.29v3.913h2.339v-.6h-1.734Z" transform="translate(-33.147 -10.13)" fill="#221f1f"/>
  <path id="Path_26" data-name="Path 26" d="M146.029,39.289h1.337v-.568h-1.337v-1h1.685v-.6h-2.289v3.913h2.337v-.6h-1.732Z" transform="translate(-35.075 -10.13)" fill="#221f1f"/>
  <path id="Path_27" data-name="Path 27" d="M152.906,40.328a2.717,2.717,0,0,0,.3-1.3,2.363,2.363,0,0,0-.4-1.441,1.267,1.267,0,0,0-1.056-.563,1.249,1.249,0,0,0-1.066.59,2.562,2.562,0,0,0-.395,1.48,2.5,2.5,0,0,0,.385,1.4,1.235,1.235,0,0,0,.987.592.885.885,0,0,0,.246.609.988.988,0,0,0,.649.2,1.1,1.1,0,0,0,.375-.064l.062-.022v-.558l-.114.025a1.629,1.629,0,0,1-.36.037c-.246,0-.345-.091-.35-.3A1.388,1.388,0,0,0,152.906,40.328ZM151.744,37.6a.678.678,0,0,1,.6.36,2,2,0,0,1,.247,1.071,2.283,2.283,0,0,1-.235,1.1.651.651,0,0,1-1.194.015,2.1,2.1,0,0,1-.247-1.068,2.188,2.188,0,0,1,.247-1.091.664.664,0,0,1,.585-.387Z" transform="translate(-36.197 -10.107)" fill="#221f1f"/>
  <path id="Path_28" data-name="Path 28" d="M158.107,39.657a1.02,1.02,0,0,1-.176.669.646.646,0,0,1-.506.192.784.784,0,0,1-.34-.077.471.471,0,0,1-.23-.22,1.4,1.4,0,0,1-.079-.568V37.128h-.6v2.529a1.69,1.69,0,0,0,.291,1.108,1.156,1.156,0,0,0,.925.363,1.236,1.236,0,0,0,.9-.348,1.519,1.519,0,0,0,.35-1.115V37.128h-.535Z" transform="translate(-37.552 -10.13)" fill="#221f1f"/>
  <path id="Path_29" data-name="Path 29" d="M162.341,37.128h-.6v3.913h.6Z" transform="translate(-38.829 -10.13)" fill="#221f1f"/>
  <path id="Path_30" data-name="Path 30" d="M166.227,37.127h-1.273v3.913h.6v-1.51h.713a1.051,1.051,0,0,0,.816-.345,1.232,1.232,0,0,0,.311-.859,1.326,1.326,0,0,0-.281-.827,1.067,1.067,0,0,0-.891-.373Zm.563,1.2a.641.641,0,0,1-.156.459.517.517,0,0,1-.184.129.51.51,0,0,1-.221.038h-.671V37.72h.7a.447.447,0,0,1,.387.178A.726.726,0,0,1,166.79,38.326Z" transform="translate(-39.579 -10.129)" fill="#221f1f"/>
  <path id="Path_31" data-name="Path 31" d="M173.156,37.106l-.007.017h-.36l-.913,2.776-.932-2.776h-.78v3.913h.541V38.263l.93,2.773h.417l.915-2.766v2.766h.595V37.123h-.405Z" transform="translate(-40.784 -10.125)" fill="#221f1f"/>
  <path id="Path_32" data-name="Path 32" d="M177.589,39.289h1.34v-.568h-1.34v-1h1.688v-.6h-2.292v3.913h2.339v-.6h-1.735Z" transform="translate(-42.353 -10.13)" fill="#221f1f"/>
  <path id="Path_33" data-name="Path 33" d="M184.256,39.729v.136l-1.446-2.736h-.674v3.913h.526V38.1l1.554,2.939h.533V37.128h-.493Z" transform="translate(-43.542 -10.13)" fill="#221f1f"/>
  <path id="Path_34" data-name="Path 34" d="M187.489,37.725h.952v3.316h.6V37.725H190v-.6h-2.509Z" transform="translate(-44.776 -10.13)" fill="#221f1f"/>
  <path id="Path_35" data-name="Path 35" d="M197.288,38.771l-.622-.165c-.315-.086-.471-.247-.471-.466a.432.432,0,0,1,.04-.216.445.445,0,0,1,.139-.169.741.741,0,0,1,.894,0,.657.657,0,0,1,.269.434l.02.1.567-.185-.015-.077a1.35,1.35,0,0,0-2.151-.688,1.044,1.044,0,0,0-.343.817,1.15,1.15,0,0,0,.126.543.905.905,0,0,0,.311.36,1.562,1.562,0,0,0,.447.188l.666.187a.686.686,0,0,1,.311.175.408.408,0,0,1,.1.145.416.416,0,0,1,.029.171.573.573,0,0,1-.168.434.772.772,0,0,1-.533.163.854.854,0,0,1-.888-.693l-.027-.086-.558.138.029.1a1.436,1.436,0,0,0,1.454,1.13,1.314,1.314,0,0,0,.955-.365,1.185,1.185,0,0,0,.35-.871A1.075,1.075,0,0,0,197.288,38.771Z" transform="translate(-46.607 -10.11)" fill="#221f1f"/>
  <path id="Path_36" data-name="Path 36" d="M202.374,37.045a1.232,1.232,0,0,0-1.068.592,2.548,2.548,0,0,0-.393,1.453,2.606,2.606,0,0,0,.372,1.421,1.264,1.264,0,0,0,2.172-.032,2.716,2.716,0,0,0,.375-1.431,2.446,2.446,0,0,0-.39-1.419,1.234,1.234,0,0,0-1.069-.585Zm.834,2a2.3,2.3,0,0,1-.234,1.1.651.651,0,0,1-.954.285.649.649,0,0,1-.24-.285,2.094,2.094,0,0,1-.247-1.068,2.179,2.179,0,0,1,.247-1.091.657.657,0,0,1,.594-.387.675.675,0,0,1,.349.1.667.667,0,0,1,.248.263,2,2,0,0,1,.237,1.071Z" transform="translate(-47.873 -10.111)" fill="#221f1f"/>
  <path id="Path_37" data-name="Path 37" d="M207.47,37.128h-.614v3.913h2.149v-.6H207.47Z" transform="translate(-49.24 -10.13)" fill="#221f1f"/>
  <path id="Path_38" data-name="Path 38" d="M213.4,39.657a1.031,1.031,0,0,1-.178.669.642.642,0,0,1-.235.155.651.651,0,0,1-.28.04.784.784,0,0,1-.34-.077.454.454,0,0,1-.23-.22,1.335,1.335,0,0,1-.078-.568V37.128h-.6v2.529a1.7,1.7,0,0,0,.3,1.1,1.157,1.157,0,0,0,.928.363,1.233,1.233,0,0,0,.9-.348,1.516,1.516,0,0,0,.348-1.115V37.128h-.53Z" transform="translate(-50.539 -10.13)" fill="#221f1f"/>
  <path id="Path_39" data-name="Path 39" d="M216.557,37.725h.953v3.316h.6V37.725h.955v-.6h-2.512Z" transform="translate(-51.692 -10.13)" fill="#221f1f"/>
  <path id="Path_40" data-name="Path 40" d="M222.368,37.128h-.6v3.913h.6Z" transform="translate(-52.866 -10.13)" fill="#221f1f"/>
  <path id="Path_41" data-name="Path 41" d="M226.183,37.045a1.235,1.235,0,0,0-1.069.592,2.491,2.491,0,0,0-.392,1.453,2.606,2.606,0,0,0,.372,1.421,1.261,1.261,0,0,0,2.168-.032,2.693,2.693,0,0,0,.375-1.431,2.464,2.464,0,0,0-.39-1.419,1.234,1.234,0,0,0-1.066-.585Zm0,3.5a.665.665,0,0,1-.595-.385,2.1,2.1,0,0,1-.247-1.068A2.179,2.179,0,0,1,225.588,38a.664.664,0,0,1,.6-.387.675.675,0,0,1,.595.36,1.986,1.986,0,0,1,.246,1.071,2.29,2.29,0,0,1-.246,1.1.659.659,0,0,1-.6.385Z" transform="translate(-53.533 -10.111)" fill="#221f1f"/>
  <path id="Path_42" data-name="Path 42" d="M232.768,39.729v.136l-1.451-2.736h-.668v3.913h.525V38.105l1.557,2.936h.553V37.128h-.513Z" transform="translate(-54.871 -10.13)" fill="#221f1f"/>
  <path id="Path_43" data-name="Path 43" d="M237.85,38.769l-.622-.165c-.419-.113-.466-.321-.466-.466a.443.443,0,0,1,.038-.214.449.449,0,0,1,.135-.171.741.741,0,0,1,.9,0,.632.632,0,0,1,.266.434l.022.1.565-.185-.027-.086a1.246,1.246,0,0,0-1.278-.987,1.261,1.261,0,0,0-.869.3,1.043,1.043,0,0,0-.343.817,1.187,1.187,0,0,0,.121.543.931.931,0,0,0,.314.36,1.607,1.607,0,0,0,.449.187l.666.187a.715.715,0,0,1,.308.173.428.428,0,0,1,.1.146.435.435,0,0,1,.029.172.553.553,0,0,1-.17.434.766.766,0,0,1-.528.163.858.858,0,0,1-.891-.7l-.027-.084-.56.138.032.1a1.446,1.446,0,0,0,1.453,1.13,1.316,1.316,0,0,0,.967-.35,1.194,1.194,0,0,0,.345-.871A1.058,1.058,0,0,0,237.85,38.769Z" transform="translate(-56.071 -10.108)" fill="#221f1f"/>
</svg>
