<svg xmlns="http://www.w3.org/2000/svg" xmlns:xlink="http://www.w3.org/1999/xlink" width="23" height="22" viewBox="0 0 23 22">
  <defs>
    <clipPath id="clip-path">
      <rect id="Rectangle_70" data-name="Rectangle 70" width="23" height="22" transform="translate(-0.5 0.25)" fill="#707070"/>
    </clipPath>
  </defs>
  <g id="Group_109" data-name="Group 109" transform="translate(0.5 -0.25)">
    <path id="Path_58" data-name="Path 58" d="M1110,7.666c-1,1.039-2.866,1.535-4.058.535-.1-.088-.14-.19-.234-.258a10.115,10.115,0,0,1-1.464,3.8c-.2.268-.459.66-.549.1a7.694,7.694,0,0,1,.167-2.968,28.577,28.577,0,0,0,.778-3.154c.012-.272-.193-.532-.228-.762-.152-1,.427-2.541,1.66-2.228,1.458.37.239,2.6.116,3.488-.145,1.051.739,1.587,1.676,1.206,1.356-.551,1.761-2.669,1.635-3.967-.222-2.286-3.266-2.721-4.918-1.7a3.113,3.113,0,0,0-1.288,3.742c.1.222.391.433.392.648a5.617,5.617,0,0,1-.215.773c-.248.382-.9-.244-1.087-.459a3.691,3.691,0,0,1,.366-4.821c2.26-2.564,7.531-2.175,8.44,1.476A5.364,5.364,0,0,1,1110,7.666" transform="translate(-1095.104 5.363)" fill="#707070"/>
    <g id="Group_62" data-name="Group 62">
      <g id="Group_57" data-name="Group 57" clip-path="url(#clip-path)">
        <path id="Path_66" data-name="Path 66" d="M12.057,0a5.19,5.19,0,0,0,.749.1,11.174,11.174,0,0,1,0,22.093,5.18,5.18,0,0,0-.749.1H10.231a5.191,5.191,0,0,0-.749-.1A11.229,11.229,0,0,1,.111,12.81a5.2,5.2,0,0,0-.1-.75c.029-.6-.039-1.234,0-1.829A11.3,11.3,0,0,1,10.231,0Zm-1.7,1.058a10.115,10.115,0,1,0,9.185,15.727A10.151,10.151,0,0,0,10.353,1.058" transform="translate(-0.035 0.079)" fill="#707070"/>
      </g>
    </g>
  </g>
</svg>
