<svg xmlns="http://www.w3.org/2000/svg" xmlns:xlink="http://www.w3.org/1999/xlink" width="24" height="22" viewBox="0 0 24 22">
  <defs>
    <clipPath id="clip-path">
      <rect id="Rectangle_70" data-name="Rectangle 70" width="24" height="22" transform="translate(-0.5 0.25)" fill="#707070"/>
    </clipPath>
  </defs>
  <g id="Group_106" data-name="Group 106" transform="translate(0.5 -0.25)">
    <path id="Path_57" data-name="Path 57" d="M271.833,8.375c.854.048,1.833-.091,2.673-.01a.45.45,0,0,1,.254.09l3.179,3.929,3.107-3.864a.445.445,0,0,1,.765.422c-1.051,1.428-2.225,2.767-3.3,4.177l4.511,5.622a.43.43,0,0,1-.339.686c-.814.079-1.752-.064-2.579,0l-.233-.076-3.2-3.943-3.107,3.864a.446.446,0,0,1-.736-.5l3.273-4.1-4.525-5.643a.435.435,0,0,1,.26-.656M281.7,18.532,274.264,9.26h-1.357l7.435,9.273Z" transform="translate(-265.694 -2.86)" fill="#707070"/>
    <g id="Group_59" data-name="Group 59">
      <g id="Group_57" data-name="Group 57" clip-path="url(#clip-path)">
        <path id="Path_66" data-name="Path 66" d="M12.057,0a5.19,5.19,0,0,0,.749.1,11.174,11.174,0,0,1,0,22.093,5.18,5.18,0,0,0-.749.1H10.231a5.191,5.191,0,0,0-.749-.1A11.229,11.229,0,0,1,.111,12.81a5.2,5.2,0,0,0-.1-.75c.029-.6-.039-1.234,0-1.829A11.3,11.3,0,0,1,10.231,0Zm-1.7,1.058a10.115,10.115,0,1,0,9.185,15.727A10.151,10.151,0,0,0,10.353,1.058" transform="translate(0.464 0.079)" fill="#707070"/>
      </g>
    </g>
  </g>
</svg>
