<svg xmlns="http://www.w3.org/2000/svg" xmlns:xlink="http://www.w3.org/1999/xlink" width="23" height="22" viewBox="0 0 23 22">
  <defs>
    <clipPath id="clip-path">
      <rect id="Rectangle_70" data-name="Rectangle 70" width="23" height="22" transform="translate(0 0.25)" fill="#707070"/>
    </clipPath>
  </defs>
  <g id="Group_110" data-name="Group 110" transform="translate(0 -0.25)">
    <path id="Path_59" data-name="Path 59" d="M1354.069,32.373a47.575,47.575,0,0,1,5.764.148c.884.093,1.737.353,1.881,1.391a25.45,25.45,0,0,1,0,5.621c-.208,1.261-1.259,1.355-2.32,1.443a51.234,51.234,0,0,1-8.015,0c-1.262-.11-2.217-.282-2.321-1.77a41.324,41.324,0,0,1,0-5.023,1.666,1.666,0,0,1,1.3-1.595,24.222,24.222,0,0,1,3.711-.215m-.534,6.749,4.143-2.373-4.143-2.428Z" transform="translate(-1343.985 -25.614)" fill="#707070"/>
    <g id="Group_63" data-name="Group 63">
      <g id="Group_57" data-name="Group 57" clip-path="url(#clip-path)">
        <path id="Path_66" data-name="Path 66" d="M12.057,0a5.19,5.19,0,0,0,.749.1,11.174,11.174,0,0,1,0,22.093,5.18,5.18,0,0,0-.749.1H10.231a5.191,5.191,0,0,0-.749-.1A11.229,11.229,0,0,1,.111,12.81a5.2,5.2,0,0,0-.1-.75c.029-.6-.039-1.234,0-1.829A11.3,11.3,0,0,1,10.231,0Zm-1.7,1.058a10.115,10.115,0,1,0,9.185,15.727A10.151,10.151,0,0,0,10.353,1.058" transform="translate(0.298 0.079)" fill="#707070"/>
      </g>
    </g>
  </g>
</svg>
